<svg xmlns="http://www.w3.org/2000/svg" viewBox="0 0 132 132"><defs><style>.cls-1{fill:#79bde8;}</style></defs><title>instagramAsset 8</title><g id="Layer_2" data-name="Layer 2"><g id="Layer_1-2" data-name="Layer 1"><circle class="cls-1" cx="65.99" cy="65.86" r="16.59"/><path class="cls-1" d="M104.79,36.5a16.48,16.48,0,0,0-9.45-9.45,27.55,27.55,0,0,0-9.24-1.71c-5.25-.24-6.82-.29-20.11-.29s-14.86.05-20.11.29a27.55,27.55,0,0,0-9.24,1.71,16.48,16.48,0,0,0-9.45,9.45,27.55,27.55,0,0,0-1.71,9.24c-.24,5.25-.29,6.82-.29,20.11s.05,14.86.29,20.11a27.55,27.55,0,0,0,1.71,9.24,16.48,16.48,0,0,0,9.45,9.45,27.53,27.53,0,0,0,9.24,1.71c5.25.24,6.82.29,20.11.29s14.86-.05,20.11-.29a27.53,27.53,0,0,0,9.24-1.71,16.48,16.48,0,0,0,9.45-9.45A27.53,27.53,0,0,0,106.5,86c.24-5.25.29-6.82.29-20.11s-.05-14.86-.29-20.11A27.53,27.53,0,0,0,104.79,36.5ZM66,91.42A25.56,25.56,0,1,1,91.55,65.86,25.56,25.56,0,0,1,66,91.42ZM92.56,45.26a6,6,0,1,1,6-6A6,6,0,0,1,92.56,45.26Z"/><path class="cls-1" d="M99,0H33A32.87,32.87,0,0,0,0,32.86v66A33.12,33.12,0,0,0,33,132H99a33.15,33.15,0,0,0,33-33.15v-66A32.9,32.9,0,0,0,99,0Zm16.48,86.38a36.53,36.53,0,0,1-2.31,12.08A25.45,25.45,0,0,1,98.59,113a36.53,36.53,0,0,1-12.08,2.31c-5.31.24-7,.3-20.52.3s-15.21-.06-20.52-.3A36.53,36.53,0,0,1,33.38,113,25.45,25.45,0,0,1,18.83,98.46a36.53,36.53,0,0,1-2.31-12.08c-.24-5.31-.3-7-.3-20.52s.06-15.21.3-20.52a36.53,36.53,0,0,1,2.31-12.08A25.45,25.45,0,0,1,33.38,18.7a36.53,36.53,0,0,1,12.08-2.31c5.31-.24,7-.3,20.52-.3s15.21.06,20.52.3A36.53,36.53,0,0,1,98.59,18.7a25.45,25.45,0,0,1,14.56,14.56,36.53,36.53,0,0,1,2.31,12.08c.24,5.31.3,7,.3,20.52S115.7,81.07,115.46,86.38Z"/></g></g></svg>