<svg xmlns="http://www.w3.org/2000/svg" viewBox="0 0 132 132"><defs><style>.cls-1{fill:#79bde8;}</style></defs><title>pinterestAsset 7</title><g id="Layer_2" data-name="Layer 2"><g id="Layer_1-2" data-name="Layer 1"><path class="cls-1" d="M99.18,0h-66C15,0,0,15.21,0,33.44v66C0,117.65,15,132,33.19,132h66A32.49,32.49,0,0,0,132,99.42v-66C132,15.21,117.4,0,99.18,0ZM72.55,84.8C67.43,84.8,62.62,82,61,78.9c0,0-2.76,10.92-3.33,13-2.05,7.44-8.09,14.89-8.55,15.5a.63.63,0,0,1-1.12-.27c-.13-.95-1.67-10.34.14-18,.91-3.85,6.1-25.82,6.1-25.82a18.24,18.24,0,0,1-1.51-7.5c0-7,4.07-12.27,9.13-12.27,4.31,0,6.39,3.24,6.39,7.12C68.22,55,65.46,61.5,64,67.49c-1.19,5,2.52,9.13,7.48,9.13,9,0,15-11.53,15-25.19,0-10.38-7-18.16-19.71-18.16C52.45,33.27,43.49,44,43.49,56a13.68,13.68,0,0,0,3.13,9.3,2.29,2.29,0,0,1,.68,2.64c-.23.88-.75,3-1,3.81A1.63,1.63,0,0,1,44,72.89c-6.62-2.7-9.7-10-9.7-18.1,0-13.46,11.35-29.6,33.86-29.6,18.09,0,30,13.09,30,27.15C98.11,70.92,87.78,84.8,72.55,84.8Z"/></g></g></svg>