<svg xmlns="http://www.w3.org/2000/svg" viewBox="0 0 132 132"><defs><style>.cls-1{fill:#79bde8;}</style></defs><title>tumblrAsset 5</title><g id="Layer_2" data-name="Layer 2"><g id="Layer_1-2" data-name="Layer 1"><path class="cls-1" d="M98.6,0h-66C14.39,0,0,15.21,0,33.44v66A32.31,32.31,0,0,0,32.61,132h66c18.23,0,33.4-14.35,33.4-32.57v-66A33.72,33.72,0,0,0,98.6,0ZM92,103.18a64.78,64.78,0,0,1-9.82,3.5,41.9,41.9,0,0,1-9.39,1,25.67,25.67,0,0,1-9-1.42,21.9,21.9,0,0,1-7.44-4.08,14.54,14.54,0,0,1-4.23-5.62A24.39,24.39,0,0,1,51,87.92V59H40V47.31c3-1.05,6.85-2.56,9.15-4.53a22.8,22.8,0,0,0,5.49-7.18A34.44,34.44,0,0,0,57.47,25H69V44H88V59H69V80.14c0,4.78,0,7.54.54,8.9a7.69,7.69,0,0,0,3.19,3.55,12.94,12.94,0,0,0,6.53,1.65c4.17,0,7.73-1.36,12.73-4.07Z"/></g></g></svg>