<svg xmlns="http://www.w3.org/2000/svg" viewBox="0 0 132 132"><defs><style>.cls-1{fill:#79bde8;}</style></defs><title>twitterAsset 2</title><g id="Layer_2" data-name="Layer 2"><g id="Layer_1-2" data-name="Layer 1"><path class="cls-1" d="M98.87,0h-66C14.65,0,0,15.21,0,33.44v66A32.54,32.54,0,0,0,32.88,132h66C117.09,132,132,117.65,132,99.43v-66C132,15.21,117.09,0,98.87,0Zm-.19,49.61c0,.72,0,1.46,0,2.19,0,22.37-17,48.15-48.15,48.15a47.93,47.93,0,0,1-25.95-7.6,34.63,34.63,0,0,0,4,.24,34,34,0,0,0,21-7.24A17,17,0,0,1,33.88,73.58a16.81,16.81,0,0,0,3.18.31,17.15,17.15,0,0,0,4.48-.6A16.92,16.92,0,0,1,28,56.7v-.21a15.8,15.8,0,0,0,7.64,2.12A16.93,16.93,0,0,1,30.39,36,48,48,0,0,0,65.26,53.69a17.23,17.23,0,0,1-.44-3.86A16.93,16.93,0,0,1,94.1,38.26a33.87,33.87,0,0,0,10.75-4.11,17,17,0,0,1-7.44,9.37,33.69,33.69,0,0,0,9.72-2.66A34.27,34.27,0,0,1,98.68,49.61Z"/></g></g></svg>