<svg xmlns="http://www.w3.org/2000/svg" viewBox="0 0 132 132"><defs><style>.cls-1{fill:#79bde8;}</style></defs><title>uppaAsset 9</title><g id="Layer_2" data-name="Layer 2"><g id="Layer_1-2" data-name="Layer 1"><path class="cls-1" d="M99.46,0h-66C15.25,0,0,14.65,0,32.88v66C0,117.09,15.25,132,33.47,132h66C117.69,132,132,117.09,132,98.87v-66A32.51,32.51,0,0,0,99.46,0ZM26,25.4c6.58-6.58,16.21-7.62,23.83,0,8.73,8.74,12.9,20.08,14.88,28.53A12.09,12.09,0,0,0,54.47,64.41,58,58,0,0,1,26,49.23C18.37,41.6,19.42,32,26,25.4Zm23.83,81c-7.62,7.61-17.25,6.58-23.83,0s-7.62-16.21,0-23.83c8.74-8.74,20.08-12.9,28.53-14.88A12.11,12.11,0,0,0,65,77.87,58,58,0,0,1,49.82,106.36Zm57.13,0c-6.58,6.58-16.2,7.61-23.82,0-8.73-8.75-12.9-20.08-14.87-28.53a12.12,12.12,0,0,0,10.22-10.5c8.21,1.84,19.24,6,28.48,15.2C114.56,90.15,113.52,99.78,106.94,106.36Zm0-57.13C98.21,58,86.87,62.12,78.42,64.09a12.07,12.07,0,0,0-10.49-10.2c1.84-8.22,5.94-19.25,15.19-28.49,7.62-7.62,17.24-6.58,23.82,0S114.56,41.6,106.94,49.23Z"/></g></g></svg>